<svg width="144" height="5" viewBox="0 0 144 5" fill="none" xmlns="http://www.w3.org/2000/svg">
<path d="M113.016 4.97396C112.179 4.97694 111.342 4.97914 110.505 4.97954C107.465 4.97864 104.424 4.97089 101.389 4.92321C99.6537 4.89953 97.9178 4.87647 96.1806 4.86267C94.3135 4.84783 94.1846 4.85282 92.2826 4.84451C91.6129 4.84166 90.9436 4.8373 90.274 4.83371C86.5511 4.80791 82.8292 4.75587 79.1036 4.76707C75.2395 4.78021 71.3754 4.79674 67.5137 4.83036C63.5284 4.86517 59.5432 4.90003 55.5592 4.94166C50.9577 4.97732 46.3545 5.00081 41.7499 4.99998C37.4973 4.99081 33.2436 4.97876 28.9965 4.92159C25.5035 4.88449 22.0123 4.84148 18.5219 4.79259C17.5631 4.77847 16.6042 4.7642 15.6435 4.77603C13.8033 4.78127 13.1905 4.37182 13.8374 4.10688C12.795 4.11323 11.7528 4.12086 10.7106 4.12868C9.05359 4.14115 7.39627 4.14992 5.7389 4.15915C3.99091 4.16414 3.35743 3.7952 3.85371 3.53128C2.0291 3.41454 2.03214 2.86147 3.51658 2.70457C3.42509 2.64554 3.3907 2.58272 3.40656 2.52022C3.25262 2.52181 3.09879 2.5235 2.94483 2.52476C2.65675 2.5268 2.36868 2.52867 2.08075 2.53157C-0.575382 2.54722 -0.7226 1.69088 1.83536 1.64527C1.58858 1.42933 1.27893 1.21426 1.346 0.994283C1.36927 0.917954 1.97066 0.944513 2.2941 0.930162C2.67161 0.913399 3.91357 0.913536 4.19733 0.914349C5.08617 0.916947 6.01584 0.928242 6.91706 0.939025C7.40895 0.938122 7.9009 0.936766 8.39279 0.936292C7.01401 0.719529 7.3908 0.133932 9.58362 0.12767C11.4186 0.129703 13.2534 0.126677 15.0879 0.118634C15.6217 0.115742 16.1553 0.112265 16.6891 0.109802C19.5154 0.096834 18.0061 0.109123 21.0378 0.0859841C23.4106 0.0678649 25.7818 0.0419872 28.1537 0.0187711C31.3971 -0.00262413 34.6458 -0.0092974 37.8897 0.0178679C39.3916 0.0305424 41.3999 0.0595484 42.8997 0.079841C47.3214 0.140186 51.7441 0.195889 56.1634 0.265329C57.3675 0.285821 58.573 0.298984 59.7788 0.309542C62.6548 0.270793 65.5313 0.234641 68.4074 0.195734C69.671 0.18428 71.3744 0.167836 72.6269 0.160458C75.7642 0.141977 78.903 0.154221 82.0409 0.159778C86.4639 0.172476 90.888 0.193764 95.311 0.184589C97.4648 0.170468 99.6186 0.155898 101.772 0.13847C102.039 0.135917 102.306 0.133365 102.573 0.13079C102.779 0.116534 103.002 0.0963364 103.081 0.125684C104.119 0.113349 104.639 0.0863738 104.54 0.348545C107.296 0.347641 110.052 0.345113 112.807 0.330857C113.658 0.32069 114.51 0.310479 115.361 0.29921C117.67 0.264158 119.975 0.214171 122.282 0.171403C123.8 0.144036 125.321 0.12344 126.843 0.110185C127.17 0.105282 127.294 0.104737 129.081 0.0849189C129.53 0.0799259 129.979 0.0736707 130.429 0.0685648C130.709 0.0653566 131.187 -0.00228864 131.27 0.0600466V0.0600466C132.06 0.0126247 132.029 0.0321165 131.69 0.3632C131.706 0.373773 131.716 0.380708 131.731 0.39092C132.555 0.381973 133.38 0.372666 134.205 0.365579C134.3 0.364675 135.432 0.356067 135.583 0.355547C137.281 0.349899 138.092 0.358938 137.739 1.11486C138.295 1.11027 138.586 1.10614 138.669 1.15465C138.858 1.16075 139.047 1.16654 139.236 1.1732C139.544 1.18411 139.847 1.20221 140.153 1.21669C140.57 1.28635 141.278 1.31009 141.405 1.4257C141.693 1.68671 141.592 1.84937 141.231 1.96307C142.276 2.03325 142.716 2.26744 142.545 2.47496C144.636 2.58854 144.487 3.33879 142.008 3.34626C141.346 3.34762 140.684 3.34965 140.022 3.35196C139.308 3.35458 138.594 3.35722 137.88 3.35925C137.879 3.3691 137.878 3.37828 137.878 3.38841C138.305 3.39817 138.654 3.43202 138.926 3.48118C139.451 3.42785 140.104 3.43 140.785 3.5278C140.579 3.81312 140.5 4.10512 140.166 4.38376C140.129 4.41461 139.891 4.38756 139.753 4.38842C139.097 4.39267 138.439 4.38848 137.783 4.39284C136.482 4.39549 135.183 4.39849 133.883 4.4019C134.012 4.63953 133.364 4.89955 131.906 4.90354L131.224 4.90444C130.282 4.90535 129.34 4.90801 128.398 4.90903C125.782 4.91294 123.166 4.91987 120.55 4.93369C118.039 4.94655 115.529 4.96444 113.018 4.97356L113.016 4.97396ZM45.1886 4.14225C47.9497 4.13554 50.7101 4.12002 53.47 4.09981C53.1489 4.09398 52.8141 4.08708 52.5183 4.08284C50.5764 4.05517 48.6302 4.05413 46.6862 4.06506C44.2446 4.07242 41.803 4.07742 39.3615 4.08557C37.4105 4.09212 35.4596 4.09888 33.5085 4.105C36.263 4.1273 39.0187 4.14034 41.775 4.14601C42.9128 4.14621 44.0508 4.14496 45.1886 4.14225ZM131.521 3.40695C132.546 3.40324 133.57 3.4001 134.594 3.39658C134.907 3.39522 135.219 3.39419 135.531 3.3933C133.811 3.36363 132.091 3.33403 130.37 3.30758C129.033 3.31079 127.695 3.31445 126.357 3.31558C124.653 3.31738 122.949 3.31861 121.245 3.31903C122.389 3.32834 123.531 3.34931 124.672 3.37344C125.808 3.40058 126.948 3.41034 128.089 3.41309C129.233 3.41377 130.377 3.4105 131.521 3.40695ZM138.602 1.33448C138.638 1.33093 138.673 1.32752 138.707 1.32321C138.713 1.32253 138.719 1.31839 138.713 1.31891C138.674 1.32248 138.613 1.32334 138.603 1.33269L138.602 1.33448ZM39.44 1.11506C39.5586 1.04087 39.7199 0.96709 39.8881 0.89431C39.2034 0.885883 38.5198 0.877684 37.8069 0.871647C34.6447 0.844866 31.4787 0.850656 28.3169 0.872323C26.1531 0.893537 23.9897 0.915239 21.8256 0.934885C24.2686 0.942883 26.711 0.955897 29.1528 0.978146C32.1152 1.01358 35.0742 1.06182 38.0364 1.09812C38.5041 1.10429 38.9721 1.10939 39.44 1.11506ZM2.47678 0.947685L2.47557 0.946331C2.4293 0.946782 2.29085 0.947009 2.3371 0.947461C2.38364 0.94766 2.43022 0.947685 2.47678 0.947685Z" fill="#ECB148"/>
</svg>
