<svg width="1440" height="258" viewBox="0 0 1440 258" fill="none" xmlns="http://www.w3.org/2000/svg">
<path d="M270 133.233V1.45505H299.567V133.233H270ZM386.628 69.8998H389.457V1.45505H418.934V133.233H386.08L349.85 63.6923H347.021V133.233H317.454V1.45505H351.129L386.628 69.8998ZM465.842 37.9595C465.842 40.5764 467.362 42.9644 470.404 45.1234C473.445 47.2846 477.249 49.1398 481.811 50.6911C486.373 52.2424 491.333 54.2966 496.687 56.8515C502.041 59.4064 506.984 62.1902 511.516 65.2009C516.048 68.2115 519.85 72.4269 522.923 77.8405C525.993 83.2563 527.532 89.3696 527.532 96.1826C527.532 107.926 523.409 117.279 515.166 124.246C506.922 131.213 495.467 134.694 480.808 134.694C467.727 134.694 456.562 130.618 447.316 122.465C438.068 114.313 433.018 102.388 432.167 86.6927H461.734C461.856 87.1806 461.976 87.8653 462.1 88.7469C462.222 89.6285 462.752 91.1969 463.696 93.4458C464.638 95.6969 465.763 97.659 467.073 99.3323C468.38 101.006 470.342 102.527 472.959 103.894C475.574 105.264 478.495 105.948 481.719 105.948C484.7 105.948 487.287 105.6 489.476 104.9C491.667 104.2 493.248 103.426 494.222 102.572C495.193 101.72 495.97 100.732 496.55 99.6062C497.128 98.4807 497.447 97.6761 497.509 97.1883C497.569 96.7025 497.601 96.3067 497.601 96.0028C497.601 93.1441 495.487 90.4972 491.258 88.0643C487.028 85.6314 481.888 83.3055 475.835 81.0822C469.782 78.8612 463.728 76.1864 457.675 73.0517C451.621 69.9191 446.48 65.4919 442.251 59.7745C438.021 54.057 435.909 47.2718 435.909 39.4231C435.909 34.0694 436.684 29.2014 438.237 24.8213C439.791 20.4412 441.659 16.9127 443.85 14.2359C446.041 11.559 448.746 9.26307 451.972 7.34584C455.197 5.42861 458.116 4.00138 460.733 3.05774C463.347 2.11624 466.223 1.40155 469.356 0.913685C472.488 0.427958 474.68 0.154049 475.927 0.0919954C477.172 0.0320819 478.405 0 479.622 0C480.594 0 481.722 0.0320819 482.999 0.0919954C484.276 0.154049 486.498 0.48784 489.66 1.09553C492.823 1.70537 495.776 2.54207 498.512 3.60553C501.249 4.67114 504.277 6.32945 507.593 8.57835C510.908 10.8294 513.754 13.5062 516.127 16.6089C518.5 19.7115 520.492 23.7878 522.105 28.8377C523.717 33.8875 524.523 39.5472 524.523 45.8125L494.772 46.1784C494.772 44.7789 494.59 43.2747 494.224 41.6613C493.858 40.05 493.206 38.2098 492.262 36.1407C491.318 34.0737 489.66 32.3533 487.289 30.9839C484.916 29.6144 482.117 28.9297 478.893 28.9297C470.192 28.9917 465.842 32.0024 465.842 37.9638V37.9595ZM540.674 133.233V1.45505H570.242V133.233H540.674ZM665.335 133.233V123.925C659.615 131.166 650.885 134.754 639.144 134.694C631.781 134.694 625.182 133.646 619.341 131.547C613.499 129.447 608.738 126.833 605.058 123.698C601.375 120.565 598.198 116.641 595.521 111.925C592.844 107.211 590.882 102.951 589.634 99.1483C588.387 95.3459 587.398 90.9509 586.669 85.9609C585.939 80.9731 585.543 77.3526 585.483 75.1016C585.421 72.8506 585.391 70.2957 585.391 67.4348C585.391 64.5739 585.421 62.0212 585.483 59.768C585.543 57.517 585.939 53.8965 586.669 48.9087C587.398 43.9209 588.387 39.5408 589.634 35.7684C590.88 31.9959 592.842 27.7378 595.521 22.9918C598.198 18.2458 601.375 14.3086 605.058 11.1739C608.738 8.04124 613.514 5.42432 619.386 3.32521C625.257 1.2261 631.843 0.177617 639.142 0.177617C645.589 0.177617 651.446 1.10628 656.71 2.96146C661.971 4.81878 666.215 7.25167 669.441 10.2623C672.666 13.273 675.495 16.5746 677.928 20.163C680.36 23.7536 682.171 27.389 683.358 31.0694C684.544 34.752 685.457 38.0814 686.095 41.0621C686.735 44.0428 687.114 46.4779 687.236 48.3631L687.417 51.1918H657.666C657.544 47.0556 656.829 43.4672 655.522 40.4223C654.213 37.3817 652.661 35.1457 650.868 33.7142C649.073 32.2848 647.293 31.1593 645.529 30.3376C643.764 29.516 642.275 29.0452 641.057 28.9232H639.14C634.394 28.9232 630.38 30.0488 627.093 32.2998C623.809 34.5508 621.329 37.6385 619.655 41.5629C617.982 45.4872 616.764 49.5634 616.005 53.7916C615.243 58.0219 614.864 62.5689 614.864 67.4348C614.864 72.3006 615.243 76.8498 616.005 81.0779C616.764 85.3083 617.982 89.3824 619.655 93.3068C621.329 97.2311 623.821 100.319 627.138 102.57C630.453 104.821 634.454 105.946 639.138 105.946C639.989 105.946 640.931 105.916 641.967 105.854C643 105.794 644.626 105.414 646.85 104.714C649.071 104.014 651.031 103.041 652.736 101.793C654.439 100.548 656.006 98.6155 657.435 95.9985C658.864 93.3838 659.701 90.2811 659.945 86.6906H635.032V59.2224H689.97V133.233H665.331H665.335ZM771.468 82.0366H735.603V133.233H706.036V1.45505H735.603V53.1989H771.468V1.45505H801.035V133.233H771.468V82.0366ZM904.251 30.2927H873.04V133.233H843.563V30.2927H812.352V1.45505H904.251V30.2927ZM915.566 133.233V1.45505H962.29C965.271 1.45505 968.206 1.63689 971.097 2.00279C973.986 2.36869 977.544 3.31238 981.775 4.83161C986.003 6.35299 989.668 8.36007 992.771 10.855C995.874 13.35 998.551 17.0454 1000.8 21.9433C1003.05 26.8413 1004.18 32.5459 1004.18 39.0551V42.4316C1004.18 49.4287 1001.32 55.7859 995.6 61.5055V64.4263C1006.06 70.6316 1011.3 79.4838 1011.3 90.9829V94.3595C1011.3 100.809 1010.17 106.496 1007.92 111.424C1005.67 116.352 1002.99 120.154 999.89 122.831C996.787 125.51 993.182 127.667 989.076 129.311C984.969 130.954 981.411 132.019 978.398 132.505C975.387 132.993 972.512 133.235 969.775 133.235H915.566V133.233ZM945.133 52.2874H962.29C966.912 51.9215 970.122 51.0869 971.917 49.7774C973.71 48.47 974.609 46.2639 974.609 43.1613V39.4188C974.609 33.3354 970.502 30.2927 962.288 30.2927H945.131V52.2853L945.133 52.2874ZM945.133 81.125V104.305H969.591C973.971 103.939 977.089 102.968 978.944 101.384C980.799 99.8031 981.728 97.5221 981.728 94.5393V90.9808C981.728 84.3497 977.681 81.0651 969.591 81.125H945.133ZM1023.53 133.233V1.45505H1053.09V104.487H1107.85V133.233H1023.52H1023.53ZM1149.65 104.487H1204.4V133.233H1120.08V1.45505H1204.4V30.2927H1149.65V52.833H1197.47V81.6707H1149.65V104.485V104.487ZM1288.63 69.8998H1291.46V1.45505H1320.94V133.233H1288.09L1251.86 63.6923H1249.03V133.233H1219.46V1.45505H1253.14L1288.63 69.8998ZM1338.83 1.45505H1382.17C1392.27 1.45505 1401.07 3.26527 1408.55 6.88576C1416.03 10.5062 1421.64 14.7494 1425.39 19.6174C1429.13 24.4854 1432.13 30.2798 1434.38 37.003C1436.63 43.7262 1437.96 49.2938 1438.39 53.7039C1438.82 58.1161 1439.03 62.6931 1439.03 67.4391C1439.03 72.1851 1438.82 76.5802 1438.39 80.9902C1437.97 85.4024 1436.63 90.968 1434.38 97.6911C1432.13 104.414 1429.13 110.209 1425.39 115.077C1421.64 119.945 1416.03 124.188 1408.55 127.808C1401.07 131.429 1392.27 133.239 1382.17 133.239H1338.83V1.46148V1.45505ZM1409.46 67.4348C1409.46 56.4834 1407.16 47.5563 1402.57 40.6492C1397.98 33.7441 1391.33 30.2906 1382.63 30.2906H1368.39V104.485H1382.63C1391.33 104.485 1397.98 101.016 1402.57 94.0813C1407.16 87.1463 1409.46 78.2641 1409.46 67.4326V67.4348Z" fill="url(#paint0_linear_492_568)"/>
<mask id="mask0_492_568" style="mask-type:luminance" maskUnits="userSpaceOnUse" x="270" y="0" width="1170" height="135">
<path d="M270.003 133.235V1.45701H299.571V133.235H270.003ZM386.631 69.9018H389.46V1.45701H418.938V133.235H386.084L349.853 63.6943H347.024V133.235H317.457V1.45701H351.133L386.631 69.9018ZM465.846 37.9614C465.846 40.5784 467.365 42.9663 470.408 45.1254C473.448 47.2865 477.253 49.1417 481.815 50.693C486.377 52.2444 491.337 54.2986 496.69 56.8534C502.044 59.4083 506.987 62.1922 511.519 65.2028C516.051 68.2135 519.853 72.4288 522.926 77.8425C525.997 83.2582 527.535 89.3715 527.535 96.1845C527.535 107.928 523.412 117.281 515.17 124.248C506.925 131.215 495.471 134.696 480.811 134.696C467.731 134.696 456.566 130.62 447.32 122.467C438.072 114.315 433.022 102.39 432.17 86.6947H461.737C461.859 87.1825 461.979 87.8673 462.103 88.7488C462.225 89.6304 462.756 91.1989 463.7 93.4478C464.641 95.6988 465.767 97.661 467.076 99.3343C468.383 101.008 470.346 102.529 472.963 103.896C475.577 105.266 478.498 105.95 481.723 105.95C484.703 105.95 487.29 105.602 489.479 104.902C491.671 104.202 493.252 103.428 494.225 102.574C495.197 101.722 495.974 100.734 496.554 99.6082C497.131 98.4827 497.45 97.6781 497.512 97.1902C497.572 96.7045 497.604 96.3086 497.604 96.0048C497.604 93.1461 495.49 90.4992 491.262 88.0663C487.032 85.6334 481.892 83.3074 475.838 81.0842C469.785 78.8631 463.732 76.1884 457.678 73.0536C451.625 69.921 446.483 65.4939 442.255 59.7764C438.024 54.0589 435.912 47.2737 435.912 39.425C435.912 34.0713 436.687 29.2034 438.241 24.8233C439.794 20.4432 441.662 16.9147 443.853 14.2378C446.044 11.561 448.749 9.26503 451.976 7.34779C455.2 5.43056 458.119 4.00333 460.736 3.05969C463.351 2.11819 466.227 1.40351 469.359 0.915638C472.492 0.429911 474.683 0.156002 475.93 0.0939485C477.176 0.034035 478.408 0.00195312 479.626 0.00195312C480.597 0.00195312 481.725 0.034035 483.002 0.0939485C484.28 0.156002 486.501 0.489793 489.664 1.09749C492.826 1.70732 495.779 2.54402 498.516 3.60748C501.252 4.67309 504.28 6.33141 507.597 8.5803C510.911 10.8313 513.757 13.5081 516.13 16.6108C518.503 19.7135 520.495 23.7898 522.109 28.8396C523.72 33.8895 524.527 39.5492 524.527 45.8144L494.775 46.1803C494.775 44.7809 494.593 43.2766 494.228 41.6632C493.862 40.052 493.209 38.2118 492.265 36.1426C491.322 34.0756 489.663 32.3553 487.293 30.9858C484.92 29.6164 482.121 28.9316 478.896 28.9316C470.196 28.9937 465.846 32.0043 465.846 37.9657V37.9614ZM540.678 133.235V1.45701H570.245V133.235H540.678ZM665.338 133.235V123.927C659.619 131.168 650.889 134.756 639.148 134.696C631.785 134.696 625.186 133.648 619.344 131.549C613.503 129.449 608.742 126.835 605.061 123.7C601.379 120.567 598.201 116.643 595.524 111.927C592.847 107.213 590.885 102.953 589.638 99.1502C588.39 95.3479 587.402 90.9528 586.672 85.9629C585.942 80.9751 585.546 77.3546 585.487 75.1035C585.425 72.8525 585.395 70.2976 585.395 67.4367C585.395 64.5759 585.425 62.0232 585.487 59.77C585.546 57.5189 585.942 53.8985 586.672 48.9107C587.402 43.9229 588.39 39.5427 589.638 35.7703C590.883 31.9979 592.845 27.7398 595.524 22.9938C598.201 18.2477 601.379 14.3106 605.061 11.1758C608.742 8.0432 613.518 5.42627 619.389 3.32716C625.261 1.22805 631.847 0.179571 639.146 0.179571C645.593 0.179571 651.449 1.10823 656.713 2.96341C661.975 4.82073 666.218 7.25362 669.445 10.2643C672.669 13.2749 675.498 16.5766 677.931 20.165C680.364 23.7555 682.174 27.391 683.362 31.0714C684.547 34.7539 685.461 38.0834 686.099 41.0641C686.738 44.0448 687.117 46.4799 687.239 48.365L687.421 51.1938H657.67C657.548 47.0576 656.833 43.4692 655.525 40.4243C654.216 37.3837 652.665 35.1477 650.871 33.7162C649.076 32.2868 647.296 31.1613 645.533 30.3396C643.767 29.5179 642.278 29.0472 641.061 28.9252H639.143C634.397 28.9252 630.383 30.0507 627.097 32.3017C623.812 34.5528 621.332 37.6405 619.659 41.5648C617.985 45.4891 616.768 49.5654 616.008 53.7936C615.247 58.0239 614.868 62.5709 614.868 67.4367C614.868 72.3026 615.247 76.8517 616.008 81.0799C616.768 85.3102 617.985 89.3844 619.659 93.3087C621.332 97.233 623.825 100.321 627.141 102.572C630.456 104.823 634.457 105.948 639.141 105.948C639.993 105.948 640.934 105.918 641.97 105.856C643.004 105.796 644.63 105.415 646.853 104.716C649.074 104.016 651.034 103.042 652.74 101.795C654.443 100.55 656.009 98.6174 657.438 96.0005C658.868 93.3857 659.704 90.283 659.948 86.6925H635.035V59.2243H689.974V133.235H665.334H665.338ZM771.471 82.0385H735.606V133.235H706.039V1.45701H735.606V53.2008H771.471V1.45701H801.038V133.235H771.471V82.0385ZM904.254 30.2947H873.044V133.235H843.566V30.2947H812.356V1.45701H904.254V30.2947ZM915.569 133.235V1.45701H962.293C965.274 1.45701 968.21 1.63885 971.101 2.00475C973.989 2.37065 977.548 3.31433 981.778 4.83357C986.006 6.35494 989.672 8.36202 992.774 10.857C995.877 13.352 998.554 17.0474 1000.8 21.9453C1003.06 26.8432 1004.18 32.5478 1004.18 39.057V42.4336C1004.18 49.4306 1001.32 55.7878 995.603 61.5074V64.4283C1006.07 70.6336 1011.3 79.4858 1011.3 90.9849V94.3615C1011.3 100.811 1010.17 106.498 1007.92 111.426C1005.67 116.354 1003 120.156 999.893 122.833C996.791 125.512 993.185 127.669 989.079 129.312C984.973 130.956 981.414 132.021 978.402 132.507C975.391 132.995 972.515 133.237 969.778 133.237H915.569V133.235ZM945.137 52.2893H962.293C966.915 51.9234 970.125 51.0889 971.92 49.7794C973.713 48.472 974.612 46.2659 974.612 43.1632V39.4208C974.612 33.3374 970.506 30.2947 962.291 30.2947H945.135V52.2872L945.137 52.2893ZM945.137 81.127V104.307H969.594C973.974 103.941 977.092 102.97 978.947 101.386C980.802 99.805 981.731 97.5241 981.731 94.5412V90.9828C981.731 84.3516 977.685 81.0671 969.594 81.127H945.137ZM1023.53 133.235V1.45701H1053.1V104.489H1107.85V133.235H1023.53H1023.53ZM1149.65 104.489H1204.4V133.235H1120.08V1.45701H1204.4V30.2947H1149.65V52.835H1197.47V81.6726H1149.65V104.487V104.489ZM1288.64 69.9018H1291.47V1.45701H1320.94V133.235H1288.09L1251.86 63.6943H1249.03V133.235H1219.46V1.45701H1253.14L1288.64 69.9018ZM1338.83 1.45701H1382.18C1392.28 1.45701 1401.07 3.26723 1408.55 6.88771C1416.04 10.5082 1421.65 14.7514 1425.39 19.6193C1429.13 24.4873 1432.13 30.2818 1434.38 37.005C1436.63 43.7281 1437.97 49.2958 1438.4 53.7059C1438.82 58.1181 1439.04 62.695 1439.04 67.441C1439.04 72.187 1438.82 76.5821 1438.4 80.9922C1437.97 85.4044 1436.63 90.9699 1434.38 97.6931C1432.13 104.416 1429.13 110.211 1425.39 115.079C1421.65 119.947 1416.04 124.19 1408.55 127.81C1401.07 131.431 1392.28 133.241 1382.18 133.241H1338.83V1.46343V1.45701ZM1409.46 67.4367C1409.46 56.4854 1407.17 47.5583 1402.57 40.6511C1397.98 33.7461 1391.33 30.2925 1382.63 30.2925H1368.4V104.487H1382.63C1391.33 104.487 1397.98 101.018 1402.57 94.0833C1407.17 87.1483 1409.46 78.2661 1409.46 67.4346V67.4367Z" fill="white"/>
</mask>
<g mask="url(#mask0_492_568)">
<path d="M1439.03 -24.8457H259.19V142.341H1439.03V-24.8457Z" fill="url(#paint1_linear_492_568)"/>
</g>
<path d="M637.931 183.08H656.774L677.052 247.862H661.8L657.852 235.479H636.722L632.864 247.862H617.612L637.933 183.08H637.931ZM646.768 203.491L641.16 221.301H653.453L647.934 203.491H646.768ZM716.17 216.726H717.56V183.08H732.051V247.862H715.9L698.091 213.677H696.7V247.862H682.164V183.08H698.718L716.17 216.726ZM757.488 183.08H776.331L796.61 247.862H781.355L777.408 235.479H756.277L752.419 247.862H737.167L757.488 183.08ZM766.326 203.491L760.717 221.301H773.01L767.492 203.491H766.326ZM801.722 247.862V183.08H816.257V233.728H843.173V247.859H801.722V247.862ZM876.192 205.152L888.528 183.08H905.261L882.65 223.41V247.859H868.114V223.41L845.504 183.08H862.237L874.574 205.152H876.19H876.192ZM952.323 197.256H936.981V247.859H922.49V197.256H907.148V183.08H952.323V197.256ZM957.886 247.862V183.08H972.422V247.862H957.886ZM979.913 219.283C979.883 218.177 979.868 216.921 979.868 215.515C979.868 214.109 979.883 212.853 979.913 211.747C979.943 210.64 980.138 208.86 980.497 206.408C980.857 203.956 981.342 201.803 981.954 199.948C982.566 198.093 983.531 196 984.847 193.668C986.163 191.335 987.725 189.399 989.536 187.858C991.346 186.318 993.693 185.032 996.58 184C999.466 182.969 1002.7 182.453 1006.29 182.453C1009.46 182.453 1012.34 182.909 1014.93 183.82C1017.52 184.732 1019.6 185.928 1021.19 187.409C1022.77 188.89 1024.16 190.512 1025.36 192.277C1026.56 194.042 1027.45 195.829 1028.03 197.637C1028.61 199.447 1029.06 201.084 1029.37 202.55C1029.69 204.016 1029.87 205.212 1029.93 206.138L1030.02 207.529H1015.4C1015.34 205.496 1014.99 203.731 1014.34 202.235C1013.7 200.74 1012.94 199.642 1012.06 198.938C1011.18 198.236 1010.3 197.682 1009.43 197.277C1008.56 196.873 1007.83 196.642 1007.23 196.582H1006.29C1003.96 196.582 1001.98 197.136 1000.37 198.242C998.754 199.349 997.536 200.868 996.712 202.796C995.889 204.726 995.292 206.729 994.917 208.807C994.543 210.886 994.357 213.12 994.357 215.513C994.357 217.905 994.543 220.141 994.917 222.219C995.292 224.298 995.889 226.301 996.712 228.229C997.534 230.159 998.76 231.676 1000.39 232.783C1002.02 233.889 1003.99 234.443 1006.29 234.443C1006.53 234.443 1006.85 234.428 1007.26 234.398C1007.66 234.368 1008.37 234.152 1009.39 233.748C1010.4 233.343 1011.31 232.791 1012.1 232.087C1012.89 231.385 1013.63 230.286 1014.3 228.79C1014.97 227.294 1015.34 225.531 1015.4 223.496H1030.02C1030.02 223.856 1030.01 224.326 1029.98 224.908C1029.95 225.492 1029.76 226.659 1029.42 228.407C1029.07 230.157 1028.62 231.833 1028.07 233.431C1027.52 235.032 1026.63 236.795 1025.4 238.725C1024.18 240.653 1022.77 242.307 1021.18 243.683C1019.6 245.058 1017.52 246.218 1014.95 247.16C1012.38 248.101 1009.49 248.572 1006.29 248.572C1002.67 248.572 999.428 248.056 996.556 247.025C993.685 245.994 991.344 244.708 989.536 243.167C987.725 241.626 986.163 239.698 984.847 237.379C983.531 235.061 982.566 232.967 981.954 231.099C981.34 229.231 980.855 227.069 980.497 224.615C980.138 222.163 979.943 220.383 979.913 219.276V219.283ZM1051.69 201.024C1051.69 202.31 1052.44 203.485 1053.94 204.546C1055.43 205.608 1057.3 206.521 1059.54 207.283C1061.79 208.045 1064.22 209.055 1066.86 210.311C1069.49 211.567 1071.92 212.934 1074.15 214.415C1076.37 215.896 1078.24 217.967 1079.75 220.629C1081.27 223.291 1082.02 226.297 1082.02 229.646C1082.02 235.419 1079.99 240.017 1075.94 243.441C1071.89 246.867 1066.26 248.578 1059.05 248.578C1052.62 248.578 1047.13 246.576 1042.59 242.568C1038.04 238.56 1035.56 232.699 1035.14 224.981H1049.68C1049.74 225.221 1049.8 225.557 1049.86 225.991C1049.92 226.425 1050.18 227.196 1050.64 228.302C1051.11 229.408 1051.66 230.373 1052.3 231.195C1052.94 232.019 1053.91 232.766 1055.19 233.437C1056.48 234.111 1057.92 234.447 1059.5 234.447C1060.97 234.447 1062.24 234.276 1063.31 233.932C1064.39 233.587 1065.17 233.206 1065.65 232.787C1066.12 232.368 1066.51 231.882 1066.79 231.33C1067.08 230.778 1067.23 230.38 1067.26 230.14C1067.29 229.9 1067.31 229.708 1067.31 229.556C1067.31 228.15 1066.27 226.849 1064.19 225.653C1062.11 224.457 1059.58 223.312 1056.61 222.221C1053.63 221.129 1050.66 219.814 1047.68 218.273C1044.71 216.732 1042.18 214.556 1040.1 211.747C1038.02 208.935 1036.98 205.601 1036.98 201.743C1036.98 199.111 1037.36 196.719 1038.13 194.566C1038.89 192.414 1039.81 190.678 1040.89 189.362C1041.96 188.046 1043.29 186.917 1044.88 185.975C1046.46 185.034 1047.9 184.33 1049.19 183.868C1050.47 183.403 1051.88 183.052 1053.42 182.813C1054.97 182.573 1056.04 182.438 1056.66 182.408C1057.27 182.378 1057.87 182.363 1058.47 182.363C1058.95 182.363 1059.5 182.378 1060.13 182.408C1060.76 182.438 1061.85 182.603 1063.41 182.903C1064.96 183.202 1066.41 183.613 1067.76 184.137C1069.11 184.661 1070.59 185.477 1072.22 186.583C1073.85 187.689 1075.25 189.005 1076.42 190.531C1077.58 192.056 1078.56 194.059 1079.35 196.541C1080.15 199.024 1080.54 201.805 1080.54 204.886L1065.92 205.066C1065.92 204.379 1065.83 203.639 1065.65 202.845C1065.47 202.053 1065.15 201.148 1064.68 200.132C1064.22 199.116 1063.4 198.27 1062.24 197.596C1061.07 196.924 1059.69 196.586 1058.11 196.586C1053.83 196.616 1051.69 198.097 1051.69 201.028V201.024Z" fill="url(#paint2_linear_492_568)"/>
<mask id="mask1_492_568" style="mask-type:luminance" maskUnits="userSpaceOnUse" x="617" y="182" width="466" height="67">
<path d="M637.93 183.082H656.772L677.051 247.864H661.799L657.851 235.481H636.721L632.863 247.864H617.61L637.932 183.082H637.93ZM646.767 203.493L641.158 221.303H653.451L647.933 203.493H646.767ZM716.168 216.728H717.559V183.082H732.049V247.864H715.898L698.089 213.679H696.698V247.864H682.163V183.082H698.716L716.168 216.728ZM757.487 183.082H776.33L796.608 247.864H781.354L777.406 235.481H756.276L752.418 247.864H737.166L757.487 183.082ZM766.324 203.493L760.716 221.303H773.009L767.49 203.493H766.324ZM801.72 247.864V183.082H816.256V233.73H843.172V247.861H801.72V247.864ZM876.191 205.154L888.526 183.082H905.259L882.648 223.412V247.861H868.113V223.412L845.502 183.082H862.235L874.573 205.154H876.189H876.191ZM952.321 197.258H936.979V247.861H922.489V197.258H907.147V183.082H952.321V197.258ZM957.885 247.864V183.082H972.42V247.864H957.885ZM979.912 219.285C979.882 218.179 979.867 216.922 979.867 215.517C979.867 214.111 979.882 212.855 979.912 211.749C979.942 210.642 980.136 208.862 980.496 206.41C980.855 203.958 981.341 201.805 981.953 199.95C982.565 198.095 983.53 196.002 984.846 193.67C986.162 191.337 987.724 189.401 989.534 187.86C991.344 186.32 993.692 185.034 996.578 184.002C999.465 182.971 1002.7 182.455 1006.29 182.455C1009.46 182.455 1012.34 182.911 1014.93 183.822C1017.51 184.734 1019.6 185.93 1021.19 187.411C1022.77 188.892 1024.16 190.513 1025.36 192.279C1026.55 194.044 1027.44 195.831 1028.03 197.639C1028.61 199.449 1029.06 201.086 1029.37 202.552C1029.69 204.018 1029.87 205.214 1029.93 206.14L1030.02 207.531H1015.4C1015.34 205.498 1014.99 203.733 1014.34 202.237C1013.7 200.742 1012.94 199.644 1012.06 198.94C1011.17 198.238 1010.3 197.684 1009.43 197.279C1008.56 196.875 1007.83 196.644 1007.23 196.584H1006.29C1003.96 196.584 1001.98 197.138 1000.37 198.244C998.752 199.351 997.535 200.87 996.711 202.798C995.887 204.728 995.29 206.731 994.916 208.809C994.541 210.888 994.355 213.122 994.355 215.515C994.355 217.907 994.541 220.143 994.916 222.221C995.29 224.3 995.887 226.303 996.711 228.231C997.533 230.161 998.759 231.678 1000.39 232.785C1002.02 233.891 1003.98 234.445 1006.29 234.445C1006.53 234.445 1006.85 234.43 1007.25 234.4C1007.66 234.37 1008.37 234.154 1009.38 233.75C1010.4 233.345 1011.31 232.793 1012.1 232.089C1012.89 231.387 1013.62 230.287 1014.3 228.792C1014.97 227.296 1015.34 225.533 1015.4 223.498H1030.02C1030.02 223.857 1030.01 224.328 1029.98 224.91C1029.95 225.494 1029.76 226.661 1029.42 228.409C1029.07 230.159 1028.62 231.835 1028.07 233.433C1027.52 235.033 1026.62 236.797 1025.4 238.727C1024.17 240.655 1022.77 242.309 1021.18 243.685C1019.6 245.06 1017.52 246.22 1014.95 247.162C1012.38 248.103 1009.49 248.574 1006.29 248.574C1002.67 248.574 999.426 248.058 996.555 247.027C993.683 245.996 991.342 244.71 989.534 243.169C987.724 241.628 986.162 239.7 984.846 237.381C983.53 235.063 982.565 232.969 981.953 231.101C981.339 229.233 980.853 227.071 980.496 224.617C980.136 222.165 979.942 220.385 979.912 219.278V219.285ZM1051.69 201.026C1051.69 202.312 1052.44 203.487 1053.93 204.548C1055.43 205.61 1057.3 206.523 1059.54 207.285C1061.79 208.047 1064.22 209.057 1066.85 210.313C1069.49 211.569 1071.92 212.936 1074.14 214.417C1076.37 215.898 1078.24 217.969 1079.75 220.631C1081.26 223.293 1082.02 226.299 1082.02 229.648C1082.02 235.421 1079.99 240.019 1075.94 243.443C1071.89 246.869 1066.26 248.58 1059.05 248.58C1052.62 248.58 1047.13 246.578 1042.59 242.57C1038.04 238.562 1035.56 232.701 1035.14 224.983H1049.67C1049.73 225.223 1049.79 225.559 1049.85 225.993C1049.91 226.427 1050.18 227.198 1050.64 228.304C1051.1 229.41 1051.66 230.375 1052.3 231.197C1052.94 232.021 1053.91 232.767 1055.19 233.439C1056.48 234.113 1057.91 234.449 1059.5 234.449C1060.97 234.449 1062.24 234.278 1063.31 233.934C1064.39 233.589 1065.17 233.208 1065.65 232.789C1066.12 232.369 1066.51 231.884 1066.79 231.332C1067.08 230.78 1067.23 230.382 1067.26 230.142C1067.29 229.902 1067.31 229.71 1067.31 229.558C1067.31 228.152 1066.27 226.851 1064.19 225.655C1062.11 224.459 1059.58 223.314 1056.61 222.223C1053.63 221.131 1050.65 219.815 1047.68 218.275C1044.7 216.734 1042.18 214.558 1040.1 211.749C1038.02 208.937 1036.98 205.603 1036.98 201.745C1036.98 199.113 1037.36 196.721 1038.13 194.568C1038.89 192.416 1039.81 190.68 1040.88 189.364C1041.96 188.048 1043.29 186.919 1044.88 185.977C1046.46 185.036 1047.9 184.332 1049.18 183.869C1050.47 183.405 1051.88 183.054 1053.42 182.815C1054.96 182.575 1056.04 182.44 1056.65 182.41C1057.27 182.38 1057.87 182.365 1058.47 182.365C1058.95 182.365 1059.5 182.38 1060.13 182.41C1060.76 182.44 1061.85 182.605 1063.41 182.904C1064.96 183.204 1066.41 183.615 1067.76 184.139C1069.1 184.663 1070.59 185.479 1072.22 186.585C1073.85 187.691 1075.25 189.007 1076.42 190.533C1077.58 192.058 1078.56 194.061 1079.35 196.543C1080.14 199.025 1080.54 201.807 1080.54 204.888L1065.92 205.068C1065.92 204.381 1065.83 203.641 1065.65 202.847C1065.47 202.055 1065.15 201.15 1064.68 200.134C1064.22 199.117 1063.4 198.272 1062.23 197.598C1061.07 196.926 1059.69 196.588 1058.11 196.588C1053.83 196.618 1051.69 198.099 1051.69 201.03V201.026Z" fill="white"/>
</mask>
<g mask="url(#mask1_492_568)">
<path d="M1794.86 162.576H615.024V329.763H1794.86V162.576Z" fill="url(#paint3_linear_492_568)"/>
</g>
<path d="M13.9542 103.076C21.1085 103.076 26.9083 97.2765 26.9083 90.1221C26.9083 82.9678 21.1085 77.168 13.9542 77.168C6.79978 77.168 1 82.9678 1 90.1221C1 97.2765 6.79978 103.076 13.9542 103.076Z" fill="url(#paint4_linear_492_568)" stroke="url(#paint5_linear_492_568)" strokeWidth="0.213977" stroke-miterlimit="10"/>
<path d="M206.811 159.451C203.25 149.638 196.416 142.076 196.416 142.076C196.416 142.076 190.883 134.994 182.441 128.859C182.409 128.835 182.403 128.788 182.441 128.765C183.359 128.144 193.514 121.186 200.079 111.101C206.963 100.524 209.965 90.7925 211.043 85.0408C212.128 79.2848 212.813 68.2736 211.636 60.2066C210.457 52.144 206.963 42.1128 202.737 34.9788C198.509 27.8491 191.574 20.3642 186.603 16.412C181.632 12.4534 173.64 7.38864 168.723 5.4714C163.804 3.55417 159.445 1.82092 150.758 0.676148H150.749C150.678 0.652611 148.785 0 142.924 0H12.965C12.8837 0.00427954 1.07221 0.965052 1.07221 12.5883C1.07221 24.2115 12.4964 25.7585 12.6227 25.7778H144.593C144.655 25.7821 151.31 26.3363 159.145 29.5459C166.981 32.7556 175.994 38.6164 180.757 49.2297C180.757 49.2297 180.759 49.2325 180.761 49.2382C180.86 49.3794 188.321 59.7894 186.145 76.837C183.962 93.9038 173.49 102.486 173.373 102.585H173.368C173.251 102.722 162.154 115.428 143.033 115.759H61.1569C61.1291 115.759 59.7126 115.873 57.8766 116.412C56.0343 116.951 53.7811 117.912 52.0822 119.613C52.0822 119.613 49.8375 121.038 48.9709 126.231V231.778C48.9709 231.81 48.9431 231.84 48.9132 231.84H26.9142C26.8821 231.84 26.8521 231.812 26.8521 231.778V127.199C26.8479 127.136 26.3129 121.509 22.0954 118.654L22.0869 118.646C22.0013 118.541 19.4871 115.592 13.1812 115.847C6.76186 116.108 3.52439 121.032 3.52439 121.032C3.52439 121.032 1.15781 123.659 1.07221 127.716V246.698C1.07221 246.698 1.06793 246.702 1.07221 246.707C1.10003 246.831 1.91956 250.357 2.57219 251.162C3.2398 251.986 4.68842 253.965 5.37529 254.5C6.06215 255.03 7.96441 256.402 8.61276 256.635C9.26111 256.862 10.9558 257.545 11.9829 257.624H144.46C144.512 257.62 154.027 256.976 157.705 255.933V255.929C157.787 255.921 165.171 254.851 176.007 248.562C186.87 242.26 194.12 234.029 194.156 233.986C194.18 233.962 196.613 230.843 199.388 226.833C202.168 222.823 205.281 217.918 206.663 214.315C209.436 207.095 212.032 200.227 212.269 188.353C212.507 176.475 210.372 169.271 206.807 159.451H206.811ZM181.104 208.388C174.813 220.554 162.428 226.627 162.428 226.627C152.97 232.184 144.244 231.716 144.244 231.716H74.8429V141.599H141.469C144.105 141.599 145.866 141.807 145.866 141.807C159.111 142.928 167.79 150.03 167.79 150.03C167.79 150.03 176.719 156.468 182.035 166.726C187.352 176.98 186.479 188.195 186.479 188.195C186.479 188.195 187.388 196.219 181.102 208.386L181.104 208.388Z" fill="url(#paint6_linear_492_568)"/>
<defs>
<linearGradient id="paint0_linear_492_568" x1="270" y1="67.3449" x2="1338.61" y2="67.3449" gradientUnits="userSpaceOnUse">
<stop stop-color="#F5C151"/>
<stop offset="0.3" stop-color="#EDB44A"/>
<stop offset="0.82" stop-color="#DA9639"/>
</linearGradient>
<linearGradient id="paint1_linear_492_568" x1="259.19" y1="58.7465" x2="1439.03" y2="58.7465" gradientUnits="userSpaceOnUse">
<stop stop-color="#F5C151"/>
<stop offset="0.35" stop-color="#EEB54A"/>
<stop offset="0.95" stop-color="#DB983A"/>
<stop offset="1" stop-color="#DA9639"/>
</linearGradient>
<linearGradient id="paint2_linear_492_568" x1="617.61" y1="215.47" x2="1082.02" y2="215.47" gradientUnits="userSpaceOnUse">
<stop stop-color="#F5C151"/>
<stop offset="0.35" stop-color="#E7AA44"/>
<stop offset="0.71" stop-color="#DD9B3B"/>
<stop offset="1" stop-color="#DA9639"/>
</linearGradient>
<linearGradient id="paint3_linear_492_568" x1="615.024" y1="246.171" x2="1129.35" y2="246.171" gradientUnits="userSpaceOnUse">
<stop stop-color="#F5C151"/>
<stop offset="0.14" stop-color="#EEB54A"/>
<stop offset="0.38" stop-color="#DB983A"/>
<stop offset="0.4" stop-color="#DA9639"/>
</linearGradient>
<linearGradient id="paint4_linear_492_568" x1="1" y1="90.1221" x2="26.9083" y2="90.1221" gradientUnits="userSpaceOnUse">
<stop stop-color="#F5C151"/>
<stop offset="1" stop-color="#DA9639"/>
</linearGradient>
<linearGradient id="paint5_linear_492_568" x1="0.893012" y1="90.1221" x2="27.0153" y2="90.1221" gradientUnits="userSpaceOnUse">
<stop stop-color="#F5C151"/>
<stop offset="0.35" stop-color="#F3BD4E"/>
<stop offset="0.49" stop-color="#F5C150"/>
<stop offset="1" stop-color="#DA9639"/>
</linearGradient>
<linearGradient id="paint6_linear_492_568" x1="1.07221" y1="128.81" x2="212.291" y2="128.81" gradientUnits="userSpaceOnUse">
<stop stop-color="#F5C151"/>
<stop offset="1" stop-color="#DA9639"/>
</linearGradient>
</defs>
</svg>
