<svg width="153" height="154" viewBox="0 0 153 154" fill="none" xmlns="http://www.w3.org/2000/svg">
<circle cx="76.4045" cy="76.9489" r="76.4045" fill="#ECB148"/>
<path d="M76.2917 48L77.1057 56.1395C78.0732 65.8143 84.018 73.54 91.7143 75.1246L93.5833 75.5095L91.7143 75.8943C84.018 77.4789 78.0732 85.2046 77.1057 94.8794L76.2917 103.019L75.4777 94.8794C74.5101 85.2047 68.5653 77.4789 60.869 75.8943L59 75.5095L60.869 75.1246C68.5653 73.54 74.5101 65.8143 75.4777 56.1395L76.2917 48Z" fill="#1C291A"/>
<path d="M83.5051 13.7423V25.3787H81.6301L76.1472 17.4525H76.0506V25.3787H73.9426V13.7423H75.829L81.3063 21.6741H81.4086V13.7423H83.5051Z" fill="black"/>
<path d="M94.3162 28.6719L98.7692 17.9213L105.761 20.8176L105.085 22.4501L100.041 20.3605L98.8316 23.2792L103.514 25.2187L102.838 26.8512L98.1554 24.9117L96.9399 27.8461L102.026 29.953L101.35 31.5855L94.3162 28.6719Z" fill="black"/>
<path d="M111.964 39.9281L117.87 29.3777L119.473 30.9808L114.909 38.5099L114.985 38.5862L122.615 34.1226L124.073 35.581L119.609 43.2186L119.682 43.2909L127.215 38.7228L128.818 40.3259L118.268 46.2318L116.797 44.7613L120.923 37.3407L120.859 37.2764L113.434 41.3985L111.964 39.9281Z" fill="black"/>
<path d="M127.479 74.7927H139.115V79.2473C139.115 80.0882 138.982 80.7871 138.717 81.3439C138.456 81.9045 138.098 82.3231 137.643 82.5996C137.189 82.8799 136.674 83.02 136.098 83.02C135.624 83.02 135.219 82.9291 134.882 82.7473C134.549 82.5655 134.278 82.3212 134.069 82.0143C133.861 81.7075 133.711 81.3647 133.621 80.9859H133.507C133.484 81.3988 133.357 81.7946 133.126 82.1734C132.899 82.556 132.577 82.8685 132.16 83.1109C131.744 83.3534 131.24 83.4746 130.649 83.4746C130.047 83.4746 129.505 83.3287 129.024 83.0371C128.547 82.7454 128.17 82.306 127.893 81.7189C127.617 81.1318 127.479 80.3931 127.479 79.503V74.7927ZM129.24 76.9007V79.1677C129.24 79.9329 129.386 80.484 129.677 80.8212C129.973 81.1621 130.352 81.3325 130.814 81.3325C131.158 81.3325 131.469 81.2473 131.746 81.0768C132.026 80.9064 132.246 80.664 132.405 80.3496C132.568 80.0352 132.649 79.6602 132.649 79.2246V76.9007H129.24ZM134.166 76.9007V78.9859C134.166 79.3496 134.232 79.6772 134.365 79.9689C134.501 80.2606 134.693 80.4897 134.939 80.6564C135.189 80.8268 135.484 80.9121 135.825 80.9121C136.276 80.9121 136.647 80.753 136.939 80.4348C137.23 80.1204 137.376 79.6526 137.376 79.0314V76.9007H134.166Z" fill="black"/>
<path d="M123.73 95.959L124.591 93.8802L133.774 102.118L132.778 104.522L120.458 103.859L121.319 101.78L131.054 102.449L131.089 102.365L123.73 95.959ZM127.917 97.7732L125.569 103.442L124.005 102.795L126.353 97.1253L127.917 97.7732Z" fill="black"/>
<path d="M120.92 118.476L122.17 119.725L115.605 126.29L114.355 125.04L116.898 122.497L109.92 115.519L111.398 114.04L118.377 121.019L120.92 118.476Z" fill="black"/>
<path d="M91.5924 134.205L93.5557 133.392C93.745 133.691 93.9664 133.933 94.2198 134.119C94.4747 134.309 94.7503 134.445 95.0468 134.527C95.3432 134.609 95.653 134.634 95.9762 134.603C96.2974 134.577 96.6224 134.495 96.9514 134.359C97.5358 134.117 97.9929 133.755 98.3225 133.275C98.6537 132.797 98.8303 132.224 98.8524 131.554C98.8759 130.889 98.7202 130.152 98.3854 129.343C98.0447 128.521 97.63 127.881 97.1412 127.423C96.6503 126.971 96.1214 126.694 95.5546 126.592C94.9857 126.496 94.4109 126.568 93.8299 126.808C93.508 126.942 93.2244 127.108 92.9792 127.308C92.732 127.513 92.5312 127.746 92.3768 128.007C92.2189 128.269 92.1137 128.555 92.0612 128.863C92.0052 129.173 92.0127 129.498 92.0836 129.838L90.1161 130.641C89.9779 130.099 89.9385 129.554 89.998 129.004C90.0539 128.457 90.2068 127.93 90.4567 127.425C90.708 126.923 91.0563 126.467 91.5015 126.057C91.9482 125.651 92.4917 125.315 93.1321 125.049C94.077 124.658 95.011 124.527 95.9341 124.658C96.8572 124.788 97.7032 125.177 98.4723 125.826C99.2413 126.475 99.865 127.377 100.343 128.532C100.823 129.691 101.018 130.77 100.928 131.771C100.84 132.775 100.516 133.649 99.9548 134.394C99.3941 135.139 98.6448 135.706 97.7069 136.094C97.1085 136.342 96.5173 136.488 95.9333 136.534C95.3493 136.579 94.7887 136.522 94.2514 136.363C93.7156 136.208 93.2211 135.949 92.7679 135.588C92.3126 135.231 91.9208 134.77 91.5924 134.205Z" fill="black"/>
<path d="M78.3718 128.024V139.661H76.2638V134.734H70.8718V139.661H68.7582V128.024H70.8718V132.967H76.2638V128.024H78.3718Z" fill="black"/>
<path d="M29.9654 111.319C30.852 110.433 31.7774 109.84 32.7416 109.54C33.7005 109.24 34.6326 109.207 35.5379 109.443C36.4405 109.676 37.2521 110.153 37.9726 110.873C38.6931 111.594 39.1712 112.407 39.4069 113.312C39.6372 114.218 39.6037 115.151 39.3064 116.113C39.0038 117.074 38.4105 117.997 37.5266 118.881C36.64 119.767 35.7173 120.36 34.7584 120.66C33.7942 120.96 32.8608 120.994 31.9581 120.761C31.0528 120.525 30.2399 120.047 29.5194 119.327C28.7989 118.606 28.3222 117.795 28.0891 116.892C27.8534 115.987 27.8869 115.053 28.1896 114.092C28.4869 113.13 29.0788 112.206 29.9654 111.319ZM31.464 112.818C30.8399 113.442 30.4114 114.066 30.1783 114.69C29.9399 115.314 29.8824 115.908 30.0056 116.47C30.1261 117.035 30.41 117.541 30.8573 117.989C31.3046 118.436 31.8108 118.72 32.376 118.84C32.9385 118.964 33.5331 118.907 34.1598 118.672C34.7812 118.436 35.404 118.006 36.028 117.382C36.6521 116.758 37.0833 116.134 37.3217 115.51C37.5547 114.886 37.611 114.291 37.4905 113.726C37.3673 113.164 37.082 112.659 36.6347 112.211C36.1874 111.764 35.6825 111.479 35.12 111.356C34.5549 111.235 33.9616 111.293 33.3402 111.528C32.7135 111.764 32.0881 112.194 31.464 112.818Z" fill="black"/>
<path d="M29.3545 97.8229L18.6039 102.276L16.934 98.2445C16.5919 97.4186 16.4589 96.6619 16.5349 95.9744C16.6095 95.2834 16.8568 94.6828 17.2769 94.1726C17.692 93.6604 18.2408 93.2629 18.9232 92.9803C19.6126 92.6947 20.2852 92.5863 20.9409 92.655C21.5967 92.7236 22.1959 92.9777 22.7387 93.417C23.278 93.8578 23.7194 94.4929 24.063 95.3223L25.1697 97.9942L23.5687 98.6574L22.5706 96.248C22.3706 95.765 22.1228 95.4044 21.8273 95.166C21.5317 94.9276 21.2065 94.7958 20.8517 94.7706C20.4954 94.7419 20.1265 94.8065 19.7451 94.9645C19.3636 95.1225 19.0589 95.3369 18.8307 95.6077C18.6011 95.875 18.4704 96.1977 18.4384 96.5759C18.4015 96.952 18.4838 97.3832 18.6853 97.8697L19.4245 99.6544L28.5478 95.8754L29.3545 97.8229Z" fill="black"/>
<path d="M24.834 78.3044H13.1976L13.1976 70.7362H14.9647L14.9647 76.1965H18.1238V71.1283H19.8908V76.1965H23.0669V70.6908H24.834V78.3044Z" fill="black"/>
<path d="M20.8019 45.8193L31.5525 50.2723L30.835 52.0046L21.414 54.037L21.377 54.1262L28.6998 57.1594L27.8931 59.1069L17.1425 54.6539L17.8644 52.9111L27.2885 50.8861L27.3276 50.7916L19.9996 47.7563L20.8019 45.8193Z" fill="black"/>
<path d="M37.2381 31.1064C36.8497 30.793 36.4185 30.6779 35.9444 30.7609C35.473 30.8413 35.0163 31.1024 34.5744 31.5444C34.2637 31.8551 34.044 32.1684 33.9155 32.4845C33.7869 32.8005 33.744 33.0978 33.7869 33.3764C33.8297 33.655 33.953 33.8987 34.1565 34.1076C34.3279 34.279 34.5154 34.3889 34.719 34.4371C34.9252 34.4826 35.1408 34.4813 35.3658 34.433C35.5881 34.3822 35.8118 34.3031 36.0368 34.196C36.2618 34.0889 36.4787 33.971 36.6876 33.8424L37.6519 33.2639C38.0349 33.0255 38.4313 32.8246 38.8411 32.6613C39.2536 32.4952 39.6674 32.3921 40.0826 32.3519C40.5004 32.309 40.9089 32.3532 41.3079 32.4845C41.707 32.6157 42.0847 32.8595 42.4409 33.2157C42.923 33.6978 43.2244 34.2455 43.3449 34.8589C43.4627 35.4696 43.3918 36.1111 43.132 36.7834C42.8722 37.4503 42.4128 38.1132 41.7539 38.7721C41.1138 39.4122 40.4589 39.8689 39.7893 40.1421C39.1223 40.4126 38.4661 40.4903 37.8206 40.3751C37.1778 40.2573 36.5725 39.9359 36.0046 39.4109L37.4711 37.9445C37.7791 38.2096 38.1059 38.3596 38.4514 38.3944C38.7969 38.4293 39.1411 38.369 39.4839 38.2136C39.8295 38.0556 40.1576 37.8213 40.4683 37.5106C40.7923 37.1865 41.028 36.8543 41.1754 36.5142C41.3227 36.1687 41.3789 35.8392 41.3441 35.5258C41.3066 35.2098 41.1713 34.9326 40.9383 34.6942C40.7214 34.4826 40.4816 34.3688 40.2192 34.3527C39.954 34.3339 39.6634 34.3888 39.3473 34.5174C39.0313 34.6406 38.6884 34.812 38.3188 35.0317L37.1416 35.7267C36.2899 36.2303 35.4904 36.5021 34.7431 36.5423C33.9958 36.5771 33.3275 36.2999 32.7383 35.7107C32.2535 35.2259 31.9602 34.6701 31.8584 34.0433C31.7593 33.4139 31.837 32.7711 32.0914 32.1149C32.3432 31.456 32.757 30.8386 33.3329 30.2627C33.9168 29.6788 34.5302 29.269 35.173 29.0333C35.8158 28.7923 36.4426 28.7253 37.0532 28.8324C37.6612 28.9369 38.2009 29.2168 38.6724 29.6721L37.2381 31.1064Z" fill="black"/>
<path d="M57.5816 28.9794C57.2631 29.1113 56.9438 29.1124 56.6235 28.9826C56.3033 28.8529 56.0782 28.6263 55.9484 28.3029C55.8144 27.9894 55.8148 27.6735 55.9495 27.3553C56.0842 27.0371 56.3107 26.8121 56.6292 26.6802C56.9372 26.5526 57.2513 26.5537 57.5715 26.6835C57.8952 26.8118 58.1241 27.0327 58.2581 27.3462C58.343 27.5611 58.3674 27.7785 58.3314 27.9984C58.2989 28.2169 58.2169 28.4149 58.0854 28.5923C57.956 28.7648 57.788 28.8939 57.5816 28.9794Z" fill="black"/>
<path d="M55.6938 139.161C55.468 139.255 55.2415 139.256 55.0144 139.164C54.7873 139.072 54.6277 138.911 54.5356 138.682C54.4406 138.459 54.4408 138.235 54.5363 138.01C54.6319 137.784 54.7926 137.624 55.0184 137.531C55.2368 137.44 55.4596 137.441 55.6867 137.533C55.9163 137.624 56.0786 137.781 56.1736 138.003C56.2338 138.156 56.2512 138.31 56.2256 138.466C56.2026 138.621 56.1444 138.761 56.0512 138.887C55.9594 139.009 55.8403 139.101 55.6938 139.161Z" fill="black"/>
</svg>
