<svg width="10" height="10" viewBox="0 0 10 10" fill="none" xmlns="http://www.w3.org/2000/svg">
<path d="M9.75378 5.02508C9.75378 3.79744 9.2661 2.62007 8.39802 1.752C7.52995 0.883921 6.35258 0.39624 5.12494 0.39624C3.89729 0.39624 2.71993 0.883921 1.85185 1.752C0.983774 2.62007 0.496094 3.79744 0.496094 5.02508C0.496094 6.25273 0.983774 7.43009 1.85185 8.29817C2.71993 9.16625 3.89729 9.65393 5.12494 9.65393C6.35258 9.65393 7.52995 9.16625 8.39802 8.29817C9.2661 7.43009 9.75378 6.25273 9.75378 5.02508ZM5.99285 4.15718C5.99285 4.00372 6.05381 3.85655 6.16231 3.74804C6.27082 3.63953 6.41799 3.57857 6.57145 3.57857C6.72491 3.57857 6.87208 3.63953 6.98059 3.74804C7.0891 3.85655 7.15006 4.00372 7.15006 4.15718C7.15006 4.31063 7.0891 4.4578 6.98059 4.56631C6.87208 4.67482 6.72491 4.73578 6.57145 4.73578C6.41799 4.73578 6.27082 4.67482 6.16231 4.56631C6.05381 4.4578 5.99285 4.31063 5.99285 4.15718ZM3.09982 4.15718C3.09982 4.00372 3.16078 3.85655 3.26929 3.74804C3.3778 3.63953 3.52497 3.57857 3.67842 3.57857C3.83188 3.57857 3.97905 3.63953 4.08756 3.74804C4.19607 3.85655 4.25703 4.00372 4.25703 4.15718C4.25703 4.31063 4.19607 4.4578 4.08756 4.56631C3.97905 4.67482 3.83188 4.73578 3.67842 4.73578C3.52497 4.73578 3.3778 4.67482 3.26929 4.56631C3.16078 4.4578 3.09982 4.31063 3.09982 4.15718ZM3.3249 6.48028C3.54189 6.74864 3.81615 6.96508 4.12761 7.11375C4.43906 7.26242 4.77982 7.33955 5.12494 7.33951C5.47005 7.33955 5.81081 7.26242 6.12227 7.11375C6.43372 6.96508 6.70799 6.74864 6.92498 6.48028C6.94888 6.45072 6.97836 6.42616 7.01175 6.40799C7.04514 6.38983 7.08178 6.37842 7.11958 6.37442C7.15737 6.37042 7.19559 6.3739 7.23204 6.38467C7.2685 6.39543 7.30247 6.41327 7.33203 6.43717C7.36158 6.46107 7.38615 6.49055 7.40431 6.52394C7.42247 6.55733 7.43388 6.59397 7.43788 6.63177C7.44189 6.66957 7.4384 6.70778 7.42764 6.74423C7.41687 6.78069 7.39903 6.81466 7.37513 6.84422C7.10386 7.17967 6.761 7.4502 6.37166 7.63602C5.98232 7.82183 5.55635 7.91821 5.12494 7.91811C4.69353 7.91821 4.26756 7.82183 3.87821 7.63602C3.48887 7.4502 3.14601 7.17967 2.87474 6.84422C2.85081 6.81466 2.83293 6.78068 2.82213 6.74421C2.81132 6.70774 2.80781 6.66951 2.81179 6.63168C2.81576 6.59386 2.82715 6.55719 2.8453 6.52376C2.86345 6.49034 2.888 6.46082 2.91756 6.43688C2.94711 6.41295 2.9811 6.39507 3.01756 6.38427C3.05403 6.37346 3.09227 6.36995 3.13009 6.37393C3.16792 6.3779 3.20459 6.38929 3.23801 6.40744C3.27144 6.42559 3.30096 6.45014 3.3249 6.4797" fill="#056A5D"/>
</svg>
