<svg width="7" height="7" viewBox="0 0 7 7" fill="none" xmlns="http://www.w3.org/2000/svg">
<path d="M5.15224 0.720673H2.30789C1.52208 0.720673 0.882812 1.38834 0.882812 2.20905V4.9268C0.882812 5.7475 1.52208 6.41517 2.30789 6.41517H5.15224C5.93804 6.41517 6.57731 5.7475 6.57731 4.9268V2.20905C6.57731 1.38834 5.93804 0.720673 5.15224 0.720673ZM1.38553 2.20905C1.38553 1.67794 1.79937 1.24572 2.30789 1.24572H5.15224C5.66075 1.24572 6.07459 1.67794 6.07459 2.20905V4.9268C6.07459 5.4579 5.66075 5.89012 5.15224 5.89012H2.30789C1.79937 5.89012 1.38553 5.4579 1.38553 4.9268V2.20905Z" fill="#056A5D"/>
<path d="M3.72986 4.95201C4.46059 4.95201 5.05542 4.3311 5.05542 3.56757C5.05542 2.80405 4.46091 2.18314 3.72986 2.18314C2.9988 2.18314 2.4043 2.80405 2.4043 3.56757C2.4043 4.3311 2.9988 4.95201 3.72986 4.95201ZM3.72986 2.70852C4.18363 2.70852 4.5527 3.09399 4.5527 3.56791C4.5527 4.04184 4.18363 4.4273 3.72986 4.4273C3.27609 4.4273 2.90702 4.04184 2.90702 3.56791C2.90702 3.09399 3.27609 2.70852 3.72986 2.70852Z" fill="#056A5D"/>
<path d="M5.17942 2.4068C5.37619 2.4068 5.53657 2.23964 5.53657 2.03379C5.53657 1.82794 5.37651 1.66077 5.17942 1.66077C4.98232 1.66077 4.82227 1.82794 4.82227 2.03379C4.82227 2.23964 4.98232 2.4068 5.17942 2.4068Z" fill="#056A5D"/>
</svg>
