<svg width="6" height="5" viewBox="0 0 6 5" fill="none" xmlns="http://www.w3.org/2000/svg">
<path d="M1.04245 1.34142C0.935833 1.24243 0.882812 1.11991 0.882812 0.974118C0.882812 0.82833 0.936117 0.700411 1.04245 0.601139C1.14906 0.50215 1.2863 0.452515 1.45445 0.452515C1.62259 0.452515 1.75445 0.50215 1.86078 0.601139C1.96739 0.700127 2.02041 0.824643 2.02041 0.974118C2.02041 1.12359 1.96711 1.24243 1.86078 1.34142C1.75416 1.44041 1.61891 1.49005 1.45445 1.49005C1.28999 1.49005 1.14906 1.44041 1.04245 1.34142ZM1.93081 1.90926V4.94414H0.972128V1.90926H1.93081Z" fill="#056A5D"/>
<path d="M5.12202 2.20904C5.331 2.43595 5.43535 2.74738 5.43535 3.1439V4.89052H4.52487V3.267C4.52487 3.06704 4.47298 2.9116 4.36948 2.80098C4.26599 2.69037 4.12648 2.63478 3.95182 2.63478C3.77715 2.63478 3.63763 2.69008 3.53414 2.80098C3.43064 2.9116 3.37875 3.06704 3.37875 3.267V4.89052H2.46289V1.90073H3.37875V2.29725C3.47147 2.16508 3.59653 2.0607 3.75361 1.98384C3.9107 1.90697 4.08735 1.86868 4.28385 1.86868C4.63375 1.86868 4.91333 1.98214 5.12202 2.20904Z" fill="#056A5D"/>
</svg>
