<svg width="6" height="6" viewBox="0 0 6 6" fill="none" xmlns="http://www.w3.org/2000/svg">
<path d="M4.07299 4.50822C3.1091 4.50507 2.32755 3.69149 2.33054 2.69496C2.33162 2.44235 2.53125 2.23759 2.77506 2.23838C2.80012 2.23847 2.82492 2.24073 2.84865 2.24517C2.90086 2.25434 2.95041 2.27278 2.99597 2.30048C3.00255 2.3046 3.00702 2.31116 3.00805 2.3188L3.10773 2.98285C3.10903 2.99049 3.10663 2.99839 3.1016 3.0041C3.04518 3.0683 2.97326 3.11444 2.89324 3.13737L2.85468 3.14843L2.86906 3.18694C2.99934 3.53327 3.26599 3.81049 3.60039 3.94798L3.63754 3.96338L3.64849 3.92359C3.67119 3.841 3.71629 3.76695 3.77875 3.70905C3.78325 3.7047 3.78932 3.70253 3.79539 3.70255C3.79671 3.70256 3.79803 3.70256 3.79961 3.70284L4.44124 3.81023C4.44889 3.81162 4.45521 3.81601 4.45915 3.82284C4.48538 3.87012 4.50289 3.92174 4.51168 3.97578C4.51583 3.9998 4.51759 4.02517 4.5175 4.05164C4.51668 4.30397 4.31732 4.50874 4.07299 4.50822Z" fill="#056A5D"/>
<path d="M5.78789 3.1564C5.73789 2.54899 5.47059 1.98478 5.03526 1.56789C4.59729 1.14853 4.0281 0.91643 3.43204 0.914486C2.12381 0.910217 1.05581 2.00721 1.05139 3.35973C1.04991 3.81367 1.16958 4.25627 1.39762 4.6422L0.882436 5.81083L2.52029 5.63586C2.8046 5.75736 3.10573 5.81945 3.41577 5.82046C3.4973 5.82073 3.58096 5.81664 3.6649 5.80791C3.7388 5.79997 3.81352 5.78821 3.88692 5.77317C4.98322 5.54787 5.78626 4.54522 5.79637 3.38831L5.79641 3.37521C5.79665 3.30156 5.79373 3.22789 5.78763 3.15667L5.78789 3.1564ZM2.58503 5.12239L1.67886 5.21927L1.95134 4.60063L1.8975 4.52544C1.89356 4.51997 1.88962 4.5145 1.88515 4.50821C1.65141 4.17218 1.52868 3.77567 1.53003 3.36157C1.53356 2.28184 2.38606 1.4062 3.43042 1.40961C4.40882 1.4128 5.23556 2.20471 5.31223 3.21241C5.31627 3.26644 5.31847 3.32073 5.31829 3.3742C5.31824 3.38948 5.31793 3.40448 5.31761 3.42057C5.29461 4.32374 4.6818 5.08885 3.82731 5.28139C3.76208 5.29618 3.69529 5.30742 3.62877 5.31457C3.55961 5.32253 3.48862 5.32639 3.41817 5.32616C3.16724 5.32534 2.92359 5.27435 2.69357 5.1743C2.66801 5.16357 2.64298 5.15204 2.61953 5.14023L2.58529 5.12293L2.58503 5.12239Z" fill="#056A5D"/>
</svg>
