<svg width="133" height="2" viewBox="0 0 133 2" fill="none" xmlns="http://www.w3.org/2000/svg">
<path d="M104.383 0.0104154C103.61 0.00922249 102.837 0.00834554 102.064 0.00818287C99.2558 0.00854435 96.4472 0.011644 93.644 0.0307175C92.0413 0.0401893 90.438 0.049411 88.8334 0.0549318C87.109 0.0608691 86.9899 0.0588718 85.2332 0.0621974C84.6147 0.0633361 83.9965 0.0650794 83.3781 0.0665163C79.9396 0.0768356 76.502 0.0976509 73.0609 0.093174C69.4921 0.0879144 65.9231 0.0813046 62.3564 0.0678566C58.6756 0.0539332 54.9947 0.039989 51.3151 0.0233347C47.0651 0.00907244 42.8136 -0.000323154 38.5607 8.50539e-06C34.633 0.00367754 30.7042 0.00849424 26.7815 0.0313643C23.5553 0.0462049 20.3308 0.0634072 17.107 0.0829643C16.2215 0.0886124 15.3358 0.0943187 14.4485 0.0895887C12.7488 0.0874921 12.1829 0.251271 12.7804 0.357248C11.8176 0.354709 10.855 0.351655 9.89242 0.348528C8.362 0.343539 6.83128 0.340033 5.30051 0.336341C3.68605 0.334344 3.10096 0.481919 3.55933 0.587487C1.8741 0.634183 1.87691 0.855412 3.24796 0.91817C3.16345 0.941783 3.13169 0.966912 3.14634 0.99191C3.00416 0.991278 2.86207 0.9906 2.71988 0.990094C2.4538 0.989281 2.18774 0.98853 1.92181 0.987374C-0.531429 0.981111 -0.667402 1.32365 1.69516 1.34189C1.46723 1.42827 1.18123 1.5143 1.24318 1.60229C1.26467 1.63282 1.82012 1.62219 2.11886 1.62793C2.46753 1.63464 3.61462 1.63459 3.8767 1.63426C4.69764 1.63322 5.55629 1.6287 6.38868 1.62439C6.84299 1.62475 7.29736 1.62529 7.75168 1.62548C6.47822 1.71219 6.82623 1.94643 8.85154 1.94893L8.85153 1.94897C10.5463 1.94815 12.241 1.94933 13.9354 1.95255C14.4283 1.9537 14.9212 1.95509 15.4142 1.95608C18.0247 1.96127 16.6307 1.95635 19.4308 1.96561C21.6223 1.97285 23.8124 1.9832 26.003 1.99249C28.9987 2.00105 31.9993 2.00372 34.9953 1.99285C36.3826 1.98778 38.2374 1.97618 39.6227 1.96806C43.7065 1.94393 47.7915 1.92164 51.8732 1.89387C52.9853 1.88567 54.0987 1.88041 55.2124 1.87618C57.8687 1.89168 60.5254 1.90614 63.1818 1.92171C64.3489 1.92629 65.9222 1.93287 67.0791 1.93582C69.9767 1.94321 72.8757 1.93831 75.7739 1.93609C79.859 1.93101 83.9451 1.92249 88.0303 1.92616C90.0195 1.93181 92.0088 1.93764 93.9977 1.94461C94.2444 1.94563 94.4911 1.94665 94.7379 1.94768C94.9278 1.95339 95.1335 1.96147 95.2069 1.94973C96.1657 1.95466 96.6454 1.96545 96.5546 1.86058C99.0999 1.86094 101.645 1.86195 104.19 1.86766C104.976 1.87172 105.762 1.87581 106.548 1.88032C108.681 1.89434 110.81 1.91433 112.941 1.93144C114.343 1.94239 115.748 1.95062 117.153 1.95593C117.456 1.95789 117.57 1.9581 119.22 1.96603C119.635 1.96803 120.05 1.97053 120.465 1.97257C120.724 1.97386 121.166 2.00092 121.243 1.97598C121.243 1.97595 121.243 1.97594 121.243 1.97591C121.973 1.99488 121.944 1.98715 121.631 1.85472C121.645 1.85049 121.654 1.84772 121.668 1.84363C122.43 1.84721 123.191 1.85093 123.953 1.85377C124.041 1.85413 125.087 1.85757 125.226 1.85778C126.794 1.86004 127.543 1.85642 127.217 1.55406C127.731 1.55589 127.999 1.55754 128.076 1.53814C128.251 1.5357 128.426 1.53339 128.6 1.53072C128.885 1.52635 129.164 1.51912 129.447 1.51333C129.832 1.48546 130.486 1.47596 130.603 1.42972C130.87 1.32531 130.776 1.26025 130.443 1.21477C131.408 1.1867 131.814 1.09303 131.656 1.01001C133.588 0.964585 133.45 0.664486 131.16 0.661495C130.548 0.660953 129.937 0.660139 129.326 0.659217C128.666 0.658169 128.007 0.657113 127.347 0.656299C127.347 0.652359 127.345 0.648689 127.345 0.644638C127.74 0.640734 128.062 0.627194 128.314 0.607529C128.798 0.628858 129.402 0.628 130.03 0.58888C129.84 0.474752 129.768 0.357954 129.459 0.246494C129.425 0.234155 129.205 0.244976 129.078 0.244633C128.471 0.242934 127.864 0.244608 127.258 0.242862C126.057 0.241805 124.856 0.240603 123.655 0.239238C123.775 0.144187 123.176 0.0401794 121.83 0.0385844L121.2 0.0382231C120.33 0.0378616 119.46 0.0367944 118.59 0.0363878C116.173 0.0348243 113.757 0.0320508 111.341 0.0265228C109.022 0.0213807 106.704 0.0142245 104.384 0.0105753L104.383 0.0104154ZM41.7367 0.343099C44.2869 0.345783 46.8364 0.351992 49.3855 0.360078C49.0889 0.362409 48.7797 0.365166 48.5065 0.366865C46.7129 0.377934 44.9154 0.37835 43.1199 0.373978C40.8648 0.371031 38.6097 0.369034 36.3547 0.365771C34.5527 0.363151 32.7509 0.360449 30.9488 0.358C33.493 0.34908 36.0381 0.343863 38.5838 0.341595C39.6348 0.341515 40.6858 0.342046 41.7366 0.343131L41.7367 0.343099ZM121.474 0.63722C122.421 0.638702 123.367 0.639958 124.313 0.641368C124.601 0.64191 124.89 0.642326 125.178 0.642678C123.59 0.654548 122.001 0.666389 120.412 0.676968C119.176 0.675685 117.941 0.674221 116.705 0.673769C115.131 0.673046 113.557 0.672558 111.983 0.672386C113.04 0.668663 114.095 0.660274 115.148 0.650624C116.197 0.639767 117.251 0.635862 118.304 0.634764C119.361 0.634493 120.418 0.635767 121.474 0.637186V0.63722ZM128.015 1.46621C128.047 1.46763 128.08 1.46899 128.112 1.47072C128.117 1.47099 128.123 1.47264 128.117 1.47243C128.081 1.47101 128.024 1.47066 128.016 1.46692C128.015 1.46665 128.014 1.46647 128.014 1.4662L128.015 1.46621ZM36.4272 1.55398C36.5368 1.58365 36.6857 1.61316 36.8411 1.64228C36.2087 1.64565 35.5773 1.64893 34.9189 1.65134C31.9983 1.66205 29.0741 1.65974 26.1538 1.65107C24.1553 1.64259 22.1571 1.6339 20.1584 1.62605C22.4147 1.62285 24.6706 1.61764 26.9259 1.60874C29.6619 1.59457 32.3949 1.57527 35.1308 1.56075C35.5628 1.55828 35.9951 1.55623 36.4272 1.55396V1.55398ZM2.28758 1.62093C2.28715 1.6212 2.28688 1.62129 2.28647 1.62147C2.24373 1.62129 2.11585 1.6212 2.15857 1.62102C2.20155 1.62094 2.24458 1.62083 2.28758 1.62083V1.62093Z" fill="#ECB148"/>
</svg>
