<svg width="217" height="54" viewBox="0 0 217 54" fill="none" xmlns="http://www.w3.org/2000/svg">
<path d="M0.813766 53L5.79424 1.4375H23.2845L28.177 53H18.4212L17.6888 44.6797H11.4778L10.8333 53H0.813766ZM12.2103 36.4473H16.8978L14.6419 10.2266H14.1731L12.2103 36.4473ZM32.5411 53V1.4375H46.5157C50.2657 1.4375 52.9903 2.35547 54.6895 4.19141C56.4083 6.00781 57.2677 9.01562 57.2677 13.2148V15.4707C57.2677 17.8926 56.8282 19.8555 55.9493 21.3594C55.0899 22.8633 53.7716 23.8496 51.9942 24.3184C54.3185 24.9043 55.8712 26.2812 56.6524 28.4492C57.4532 30.5977 57.8536 33.2246 57.8536 36.3301C57.8536 39.6699 57.5411 42.5898 56.9161 45.0898C56.2911 47.5898 55.1583 49.5332 53.5177 50.9199C51.877 52.3066 49.5431 53 46.5157 53H32.5411ZM42.6192 20.8613H44.7286C45.6856 20.8613 46.3009 20.4902 46.5743 19.748C46.8478 19.0059 46.9845 18.1172 46.9845 17.082V11.8965C46.9845 10.2363 46.252 9.40625 44.7872 9.40625H42.6192V20.8613ZM43.6446 43.918C46.3204 43.918 47.6583 42.6484 47.6583 40.1094V33.6641C47.6583 32.1992 47.4337 31.0469 46.9845 30.207C46.5548 29.3477 45.7345 28.918 44.5235 28.918H42.6192V43.8594C43.0489 43.8984 43.3907 43.918 43.6446 43.918ZM74.7567 53.4688C70.6356 53.4688 67.4813 52.2285 65.2938 49.748C63.1259 47.248 62.0419 43.6445 62.0419 38.9375V14.4453C62.0419 10.0312 63.1161 6.68164 65.2645 4.39648C67.4325 2.11133 70.5966 0.96875 74.7567 0.96875C78.9169 0.96875 82.0712 2.11133 84.2196 4.39648C86.3876 6.68164 87.4716 10.0312 87.4716 14.4453V38.9375C87.4716 43.6445 86.3778 47.248 84.1903 49.748C82.0224 52.2285 78.8778 53.4688 74.7567 53.4688ZM74.8446 43.9766C76.4071 43.9766 77.1884 42.4629 77.1884 39.4355V14.2695C77.1884 11.7305 76.4267 10.4609 74.9032 10.4609C73.1845 10.4609 72.3251 11.7598 72.3251 14.3574V39.4941C72.3251 41.0957 72.5204 42.248 72.911 42.9512C73.3017 43.6348 73.9462 43.9766 74.8446 43.9766ZM104.756 53.4688C100.459 53.4688 97.2946 52.2676 95.2634 49.8652C93.2321 47.4434 92.2165 43.8887 92.2165 39.2012V1.4375H102.236V38.791C102.236 39.6504 102.285 40.4805 102.383 41.2812C102.48 42.0625 102.705 42.707 103.056 43.2148C103.408 43.7227 103.974 43.9766 104.756 43.9766C105.556 43.9766 106.133 43.7324 106.484 43.2441C106.836 42.7363 107.05 42.082 107.129 41.2812C107.226 40.4805 107.275 39.6504 107.275 38.791V1.4375H117.295V39.2012C117.295 43.8887 116.279 47.4434 114.248 49.8652C112.216 52.2676 109.052 53.4688 104.756 53.4688ZM126.874 53V11.3398H120.75V1.4375H143.309V11.3398H137.186V53H126.874ZM174.566 53.4688C170.27 53.4688 167.106 52.2676 165.074 49.8652C163.043 47.4434 162.027 43.8887 162.027 39.2012V1.4375H172.047V38.791C172.047 39.6504 172.096 40.4805 172.193 41.2812C172.291 42.0625 172.516 42.707 172.867 43.2148C173.219 43.7227 173.785 43.9766 174.566 43.9766C175.367 43.9766 175.943 43.7324 176.295 43.2441C176.647 42.7363 176.861 42.082 176.94 41.2812C177.037 40.4805 177.086 39.6504 177.086 38.791V1.4375H187.106V39.2012C187.106 43.8887 186.09 47.4434 184.059 49.8652C182.027 52.2676 178.863 53.4688 174.566 53.4688ZM204.507 53.4688C199.8 53.4688 196.401 52.2969 194.311 49.9531C192.241 47.6094 191.206 43.8789 191.206 38.7617V33.7227H201.401V40.168C201.401 41.3594 201.577 42.2969 201.929 42.9805C202.3 43.6445 202.934 43.9766 203.833 43.9766C204.77 43.9766 205.415 43.7031 205.766 43.1562C206.138 42.6094 206.323 41.7109 206.323 40.4609C206.323 38.8789 206.167 37.5605 205.854 36.5059C205.542 35.4316 204.995 34.416 204.214 33.459C203.452 32.4824 202.388 31.3496 201.02 30.0605L196.391 25.666C192.934 22.4043 191.206 18.6738 191.206 14.4746C191.206 10.0801 192.222 6.73047 194.253 4.42578C196.304 2.12109 199.263 0.96875 203.13 0.96875C207.856 0.96875 211.206 2.22852 213.179 4.74805C215.171 7.26758 216.167 11.0957 216.167 16.2324H205.679V12.6875C205.679 11.9844 205.474 11.4375 205.063 11.0469C204.673 10.6563 204.136 10.4609 203.452 10.4609C202.632 10.4609 202.026 10.6953 201.636 11.1641C201.265 11.6133 201.079 12.1992 201.079 12.9219C201.079 13.6445 201.274 14.4258 201.665 15.2656C202.056 16.1055 202.827 17.0723 203.979 18.166L209.927 23.8789C211.118 25.0117 212.212 26.2129 213.208 27.4824C214.204 28.7324 215.005 30.1973 215.61 31.877C216.216 33.5371 216.518 35.5684 216.518 37.9707C216.518 42.8145 215.62 46.6133 213.823 49.3672C212.046 52.1016 208.94 53.4688 204.507 53.4688Z" fill="#0C3531"/>
</svg>
